<svg
        id="svg"
        viewBox="0 0 1440 390"
        xmlns="http://www.w3.org/2000/svg"
        className="transition duration-300 ease-in-out delay-150"
      >
        <path
          d="M 0,400 C 0,400 0,100 0,100 C 46.41059712883751,95.75924663416673 92.82119425767502,91.51849326833346 132,85 C 171.17880574232498,78.48150673166654 203.12582009813735,69.68527356083293 245,82 C 286.87417990186265,94.31472643916707 338.6755253497757,127.7404124883349 386,130 C 433.3244746502243,132.2595875116651 476.17207850275986,103.35307648582746 520,92 C 563.8279214972401,80.64692351417254 608.6361606391853,86.84728156835524 652,81 C 695.3638393608147,75.15271843164476 737.2832789404995,57.2577972407516 788,66 C 838.7167210595005,74.7422027592484 898.2307235988162,110.12152946863839 936,113 C 973.7692764011838,115.87847053136161 989.7938266642348,86.25608488469486 1027,88 C 1064.2061733357652,89.74391511530514 1122.5939697442448,122.85413099258216 1174,127 C 1225.4060302557552,131.14586900741784 1269.8302943587873,106.32739114497652 1313,97 C 1356.1697056412127,87.67260885502348 1398.0848528206063,93.83630442751175 1440,100 C 1440,100 1440,400 1440,400 Z"
          stroke="none"
          stroke-width="0"
          fill-opacity="0.4"
          className="transition-all duration-300 ease-in-out delay-150 path-0"
        ></path>
        <path
          d="M 0,400 C 0,400 0,200 0,200 C 31.68134948531926,206.47096343491188 63.36269897063852,212.94192686982373 109,222 C 154.63730102936148,231.05807313017627 214.23055360276527,242.7032559556169 259,226 C 303.76944639723473,209.2967440443831 333.71508661830046,164.24504930770877 375,165 C 416.28491338169954,165.75495069229123 468.90909992403294,212.316546813548 512,213 C 555.090900075967,213.683453186452 588.6485136855675,168.48876343809928 634,167 C 679.3514863144325,165.51123656190072 736.4968453336969,207.7283994340548 783,225 C 829.5031546663031,242.2716005659452 865.3641049796448,234.59763882568143 913,233 C 960.6358950203552,231.40236117431857 1020.046734747724,235.88104526321942 1068,221 C 1115.953265252276,206.11895473678058 1152.448956029459,171.87818012144092 1188,168 C 1223.551043970541,164.12181987855908 1258.1574411344402,190.60623425101687 1300,201 C 1341.8425588655598,211.39376574898313 1390.92127943278,205.69688287449156 1440,200 C 1440,200 1440,400 1440,400 Z"
          stroke="none"
          stroke-width="0"
          fill-opacity="0.53"
          className="transition-all duration-300 ease-in-out delay-150 path-1"
        ></path>
        <path
          d="M 0,400 C 0,400 0,300 0,300 C 57.18864072219988,289.92618629796414 114.37728144439976,279.8523725959282 152,284 C 189.62271855560024,288.1476274040718 207.67951494460084,306.5166959142512 246,310 C 284.32048505539916,313.4833040857488 342.90465877719714,302.0808437470671 390,290 C 437.09534122280286,277.9191562529329 472.70184994661065,265.15992909748036 521,279 C 569.2981500533893,292.84007090251964 630.2879414363604,333.27943986301153 670,332 C 709.7120585636396,330.72056013698847 728.1463843079479,287.72231145047357 766,276 C 803.8536156920521,264.27768854952643 861.1265213318482,283.8313143350941 906,298 C 950.8734786681518,312.1686856649059 983.3475303646592,320.95243120915006 1023,320 C 1062.6524696353408,319.04756879084994 1109.483357209515,308.3589608283057 1155,309 C 1200.516642790485,309.6410391716943 1244.7190407972814,321.611725477627 1292,322 C 1339.2809592027186,322.388274522373 1389.6404796013594,311.1941372611865 1440,300 C 1440,300 1440,400 1440,400 Z"
          stroke="none"
          stroke-width="0"
          fill-opacity="1"
          className="transition-all duration-300 ease-in-out delay-150 path-2"
        ></path>
      </svg>